<svg xmlns="http://www.w3.org/2000/svg" version="1.1" xmlns:xlink="http://www.w3.org/1999/xlink" xmlns:svgjs="http://svgjs.com/svgjs" width="1440" height="560" preserveAspectRatio="none" viewBox="0 0 1440 560"><g mask="url(&quot;#SvgjsMask1000&quot;)" fill="none"><rect width="1440" height="560" x="0" y="0" fill="#1e3266"></rect><path d="M1464 560L0 560 L0 350.21Q35.75 265.96, 120 301.71Q198.56 260.27, 240 338.83Q319.54 298.37, 360 377.91Q389.56 335.47, 432 365.02Q458.94 271.96, 552 298.9Q602.7 229.6, 672 280.29Q735.08 271.37, 744 334.45Q819.18 289.63, 864 364.81Q866.27 295.08, 936 297.35Q966.45 255.8, 1008 286.25Q1067.12 273.37, 1080 332.49Q1136.08 316.56, 1152 372.64Q1177.03 325.67, 1224 350.7Q1274.11 280.81, 1344 330.91Q1382.17 249.08, 1464 287.25z" fill="#182f5d"></path><path d="M1512 560L0 560 L0 430.84Q39.15 349.99, 120 389.14Q170 367.13, 192 417.13Q205.88 359.01, 264 372.9Q290.06 326.96, 336 353.02Q416.67 313.69, 456 394.35Q481.27 347.63, 528 372.9Q557.52 330.42, 600 359.94Q704.02 343.96, 720 447.98Q745.74 401.72, 792 427.46Q816.04 379.5, 864 403.54Q909.24 328.78, 984 374.02Q1068.41 338.43, 1104 422.84Q1110.26 357.1, 1176 363.35Q1206.8 322.15, 1248 352.96Q1320.34 305.29, 1368 377.63Q1424.2 361.84, 1440 418.04Q1470.18 376.22, 1512 406.4z" fill="#25467d"></path><path d="M1488 560L0 560 L0 502.58Q15.11 445.69, 72 460.79Q123.97 392.76, 192 444.74Q218.56 399.3, 264 425.86Q350.64 392.5, 384 479.14Q427.73 402.87, 504 446.59Q534.89 405.49, 576 436.38Q672.13 412.51, 696 508.64Q730.75 423.38, 816 458.13Q867.13 389.25, 936 440.38Q966.27 398.65, 1008 428.93Q1112.48 413.41, 1128 517.89Q1173.06 442.95, 1248 488.01Q1313.26 433.27, 1368 498.54Q1396.45 406.99, 1488 435.44z" fill="#356cb1"></path><path d="M1512 560L0 560 L0 559.83Q38.13 525.96, 72 564.09Q99.27 519.37, 144 546.64Q217.96 500.6, 264 574.55Q318.07 508.62, 384 562.69Q398.39 505.08, 456 519.47Q506.16 449.63, 576 499.8Q637.47 489.27, 648 550.75Q692.6 523.35, 720 567.95Q733.83 509.78, 792 523.61Q833.88 493.5, 864 535.38Q933.8 485.18, 984 554.99Q1001.71 500.7, 1056 518.41Q1121.03 463.44, 1176 528.48Q1260.97 493.45, 1296 578.43Q1319.82 530.25, 1368 554.07Q1396.31 510.38, 1440 538.69Q1454.73 481.42, 1512 496.15z" fill="white"></path></g><defs><mask id="SvgjsMask1000"><rect width="1440" height="560" fill="#ffffff"></rect></mask></defs></svg>